<mxfile host="Electron" modified="2024-01-07T16:34:45.686Z" agent="Mozilla/5.0 (X11; Linux x86_64) AppleWebKit/537.36 (KHTML, like Gecko) draw.io/22.1.16 Chrome/120.0.6099.109 Electron/28.1.0 Safari/537.36" etag="63HYvkZj_BlWccdm93TL" version="22.1.16" type="device">
  <diagram name="Overview" id="p0wzpaUsreVqfvOPJBVa">
    <mxGraphModel dx="456" dy="751" grid="1" gridSize="10" guides="1" tooltips="1" connect="1" arrows="1" fold="1" page="1" pageScale="1" pageWidth="1100" pageHeight="850" math="0" shadow="0">
      <root>
        <mxCell id="0" />
        <mxCell id="1" parent="0" />
        <mxCell id="qX7ymqVcjO1p-xWjuIsB-1" value="&lt;span style=&quot;font-size: 15px;&quot;&gt;LiveMix&lt;br style=&quot;font-size: 15px;&quot;&gt;System Control Node&lt;/span&gt;" style="rounded=1;whiteSpace=wrap;html=1;fontStyle=1;fontSize=15;" parent="1" vertex="1">
          <mxGeometry x="400" y="240" width="120" height="80" as="geometry" />
        </mxCell>
        <mxCell id="qX7ymqVcjO1p-xWjuIsB-2" value="Segment Cache:&lt;br&gt;memcached" style="shape=cylinder3;whiteSpace=wrap;html=1;boundedLbl=1;backgroundOutline=1;size=15;fontStyle=1" parent="1" vertex="1">
          <mxGeometry x="480" y="360" width="90" height="100" as="geometry" />
        </mxCell>
        <mxCell id="qX7ymqVcjO1p-xWjuIsB-3" value="Segment Recording:&lt;br&gt;Object Store" style="shape=cylinder3;whiteSpace=wrap;html=1;boundedLbl=1;backgroundOutline=1;size=15;fontStyle=1" parent="1" vertex="1">
          <mxGeometry x="350" y="360" width="90" height="100" as="geometry" />
        </mxCell>
        <mxCell id="qX7ymqVcjO1p-xWjuIsB-4" style="edgeStyle=orthogonalEdgeStyle;rounded=0;orthogonalLoop=1;jettySize=auto;html=1;entryX=0.5;entryY=0;entryDx=0;entryDy=0;entryPerimeter=0;" parent="1" source="qX7ymqVcjO1p-xWjuIsB-1" target="qX7ymqVcjO1p-xWjuIsB-3" edge="1">
          <mxGeometry relative="1" as="geometry" />
        </mxCell>
        <mxCell id="qX7ymqVcjO1p-xWjuIsB-5" style="edgeStyle=orthogonalEdgeStyle;rounded=0;orthogonalLoop=1;jettySize=auto;html=1;entryX=0.5;entryY=0;entryDx=0;entryDy=0;entryPerimeter=0;" parent="1" source="qX7ymqVcjO1p-xWjuIsB-1" target="qX7ymqVcjO1p-xWjuIsB-2" edge="1">
          <mxGeometry relative="1" as="geometry" />
        </mxCell>
        <mxCell id="qX7ymqVcjO1p-xWjuIsB-7" value="LiveMix &lt;br style=&quot;font-size: 14px;&quot;&gt;Edge Node" style="rounded=1;whiteSpace=wrap;html=1;fontStyle=1;fontSize=14;" parent="1" vertex="1">
          <mxGeometry x="160" y="200" width="120" height="40" as="geometry" />
        </mxCell>
        <mxCell id="qX7ymqVcjO1p-xWjuIsB-8" value="LiveMix &lt;br style=&quot;font-size: 14px;&quot;&gt;Edge Node" style="rounded=1;whiteSpace=wrap;html=1;fontStyle=1;fontSize=14;" parent="1" vertex="1">
          <mxGeometry x="160" y="260" width="120" height="40" as="geometry" />
        </mxCell>
        <mxCell id="qX7ymqVcjO1p-xWjuIsB-9" value="LiveMix &lt;br style=&quot;font-size: 14px;&quot;&gt;Edge Node" style="rounded=1;whiteSpace=wrap;html=1;fontStyle=1;fontSize=14;" parent="1" vertex="1">
          <mxGeometry x="160" y="320" width="120" height="40" as="geometry" />
        </mxCell>
        <mxCell id="qX7ymqVcjO1p-xWjuIsB-14" style="edgeStyle=orthogonalEdgeStyle;rounded=0;orthogonalLoop=1;jettySize=auto;html=1;exitX=1;exitY=0.5;exitDx=0;exitDy=0;exitPerimeter=0;entryX=0;entryY=0.5;entryDx=0;entryDy=0;" parent="1" source="qX7ymqVcjO1p-xWjuIsB-13" target="qX7ymqVcjO1p-xWjuIsB-7" edge="1">
          <mxGeometry relative="1" as="geometry" />
        </mxCell>
        <mxCell id="qX7ymqVcjO1p-xWjuIsB-13" value="HLS" style="html=1;shadow=0;dashed=0;align=center;verticalAlign=middle;shape=mxgraph.arrows2.arrow;dy=0;dx=30;notch=30;fontStyle=1" parent="1" vertex="1">
          <mxGeometry x="22.5" y="205" width="95" height="30" as="geometry" />
        </mxCell>
        <mxCell id="qX7ymqVcjO1p-xWjuIsB-20" style="edgeStyle=orthogonalEdgeStyle;rounded=0;orthogonalLoop=1;jettySize=auto;html=1;" parent="1" source="qX7ymqVcjO1p-xWjuIsB-19" target="qX7ymqVcjO1p-xWjuIsB-1" edge="1">
          <mxGeometry relative="1" as="geometry" />
        </mxCell>
        <mxCell id="qX7ymqVcjO1p-xWjuIsB-19" value="User" style="shape=umlActor;verticalLabelPosition=bottom;verticalAlign=top;html=1;outlineConnect=0;" parent="1" vertex="1">
          <mxGeometry x="600" y="250" width="30" height="60" as="geometry" />
        </mxCell>
        <mxCell id="qX7ymqVcjO1p-xWjuIsB-21" value="" style="endArrow=classic;html=1;rounded=0;exitX=1;exitY=0.5;exitDx=0;exitDy=0;entryX=0;entryY=0.5;entryDx=0;entryDy=0;" parent="1" source="qX7ymqVcjO1p-xWjuIsB-7" target="qX7ymqVcjO1p-xWjuIsB-1" edge="1">
          <mxGeometry width="50" height="50" relative="1" as="geometry">
            <mxPoint x="510" y="420" as="sourcePoint" />
            <mxPoint x="560" y="370" as="targetPoint" />
          </mxGeometry>
        </mxCell>
        <mxCell id="qX7ymqVcjO1p-xWjuIsB-22" value="" style="endArrow=classic;html=1;rounded=0;exitX=1;exitY=0.5;exitDx=0;exitDy=0;entryX=0;entryY=0.5;entryDx=0;entryDy=0;" parent="1" source="qX7ymqVcjO1p-xWjuIsB-8" edge="1" target="qX7ymqVcjO1p-xWjuIsB-1">
          <mxGeometry width="50" height="50" relative="1" as="geometry">
            <mxPoint x="340" y="140" as="sourcePoint" />
            <mxPoint x="430" y="280" as="targetPoint" />
          </mxGeometry>
        </mxCell>
        <mxCell id="qX7ymqVcjO1p-xWjuIsB-23" value="" style="endArrow=classic;html=1;rounded=0;exitX=1;exitY=0.5;exitDx=0;exitDy=0;entryX=0;entryY=0.5;entryDx=0;entryDy=0;" parent="1" source="qX7ymqVcjO1p-xWjuIsB-9" target="qX7ymqVcjO1p-xWjuIsB-1" edge="1">
          <mxGeometry width="50" height="50" relative="1" as="geometry">
            <mxPoint x="280" y="150" as="sourcePoint" />
            <mxPoint x="330" y="100" as="targetPoint" />
          </mxGeometry>
        </mxCell>
        <mxCell id="9NIjal488HxRrtdalQbi-3" style="edgeStyle=orthogonalEdgeStyle;rounded=0;orthogonalLoop=1;jettySize=auto;html=1;entryX=0;entryY=0.5;entryDx=0;entryDy=0;" edge="1" parent="1" source="9NIjal488HxRrtdalQbi-1" target="qX7ymqVcjO1p-xWjuIsB-8">
          <mxGeometry relative="1" as="geometry" />
        </mxCell>
        <mxCell id="9NIjal488HxRrtdalQbi-1" value="HLS" style="html=1;shadow=0;dashed=0;align=center;verticalAlign=middle;shape=mxgraph.arrows2.arrow;dy=0;dx=30;notch=30;fontStyle=1" vertex="1" parent="1">
          <mxGeometry x="22.5" y="265" width="95" height="30" as="geometry" />
        </mxCell>
        <mxCell id="9NIjal488HxRrtdalQbi-4" style="edgeStyle=orthogonalEdgeStyle;rounded=0;orthogonalLoop=1;jettySize=auto;html=1;entryX=0;entryY=0.5;entryDx=0;entryDy=0;" edge="1" parent="1" source="9NIjal488HxRrtdalQbi-2" target="qX7ymqVcjO1p-xWjuIsB-9">
          <mxGeometry relative="1" as="geometry" />
        </mxCell>
        <mxCell id="9NIjal488HxRrtdalQbi-2" value="HLS" style="html=1;shadow=0;dashed=0;align=center;verticalAlign=middle;shape=mxgraph.arrows2.arrow;dy=0;dx=30;notch=30;fontStyle=1" vertex="1" parent="1">
          <mxGeometry x="22.5" y="325" width="95" height="30" as="geometry" />
        </mxCell>
      </root>
    </mxGraphModel>
  </diagram>
</mxfile>
